<svg version="1.2" xmlns="http://www.w3.org/2000/svg" viewBox="0 0 200 30" width="200" height="30">
	<title>M&amp;Tv Bookmark</title>
	<style>
	   .s0 {
        fill: var(--text-color);
      }
	</style>
	<path id="M&amp;Tv Bookmark" class="s0" aria-label="M&amp;Tv Bookmark"  d="m16.6 5.9h3.3q1.2 0 1.3 1.3l0.7 16.8h-3.1l-0.7-15.5h-0.5l-3.3 12.1q-0.3 1.1-1.4 1.1h-2.3q-1.1 0-1.4-1.1l-3.4-12.1h-0.5l-0.5 15.5h-3.1l0.7-16.8q0-1.3 1.2-1.3h3.3q1 0 1.3 1.1l2.8 9.9q0.2 0.6 0.3 1.3 0.1 0.6 0.3 1.2h0.3q0.2-0.6 0.3-1.2 0.2-0.7 0.3-1.3l2.8-9.9q0.2-1.1 1.3-1.1zm16-0.3q0.8 0 1.9 0.1 1.1 0 2.3 0.2l-0.4 2.3q-0.3 0-0.7 0-0.5-0.1-1-0.1-0.6 0-1.2 0-0.5 0-1 0-1.4 0-2.2 0.2-0.7 0.2-1.1 0.8-0.3 0.6-0.3 1.7 0 1.1 0.3 1.7 0.2 0.6 0.9 0.8 0.6 0.2 1.7 0.2h10.3v2.3h-10.5q-1.1 0-1.8 0.3-0.7 0.2-1 0.9-0.3 0.6-0.3 1.8 0 1.1 0.2 1.7 0.3 0.6 0.9 0.9 0.7 0.2 1.7 0.2 1.7 0 2.9-0.4 1.3-0.5 2.3-1.4l0.3 1.8q-0.8 1-1.7 1.6-0.9 0.6-2 0.9-1.1 0.2-2.6 0.2-1.9 0-3.1-0.5-1.2-0.4-1.8-1.5-0.5-1.1-0.5-2.9 0-2.1 0.7-3.3 0.8-1.2 2.8-1.4v-0.1q-1.6-0.2-2.3-1.2-0.7-1.1-0.7-3.1 0-1.5 0.4-2.5 0.4-0.9 1.2-1.4 0.9-0.5 2.2-0.6 1.3-0.2 3.2-0.2zm3.8 4.9h2.7v9.7q0 0.8 0.4 1.1 0.3 0.4 1.1 0.4h1.7l0.4 2.1q-0.4 0.2-1 0.3-0.6 0.1-1.2 0.1-0.5 0.1-0.9 0.1-1.7 0-2.6-0.9-0.9-0.8-0.9-2.3v-6.6zm12-4.5h3.3v18.1h-3.3zm-5.6 0h14.5v2.6h-14.5zm24.1 5.2h3.4l-4.5 12.2q-0.1 0.3-0.4 0.5-0.3 0.2-0.6 0.2h-2.8q-0.4 0-0.7-0.2-0.3-0.2-0.4-0.5l-4.4-12.2h3.4l2.7 8.5q0.1 0.6 0.3 1.2 0.1 0.5 0.3 1.1h0.3q0.2-0.6 0.4-1.2 0.1-0.5 0.3-1.1zm17.3-5.4q2.3 0 3.7 0.4 1.4 0.4 2 1.4 0.6 1 0.6 2.9 0 1.9-0.8 2.9-0.7 1.1-2.4 1.2v0.1q2.1 0.2 2.9 1.4 0.8 1.3 0.8 3.4 0 1.9-0.6 2.9-0.6 1-1.9 1.5-1.3 0.4-3.5 0.4-1.6 0-2.8 0-1.3-0.1-2.3-0.1-1-0.1-2.1-0.2l0.3-2.3q0.7 0 2.4 0 1.7 0 4 0 1.2 0 1.9-0.2 0.7-0.2 1-0.8 0.3-0.6 0.3-1.8 0-1.2-0.3-1.9-0.3-0.7-1-0.9-0.7-0.3-2-0.3h-6.3v-2.2h6.2q1.2 0 1.8-0.2 0.6-0.3 0.9-0.9 0.3-0.5 0.3-1.6 0-1.1-0.3-1.7-0.3-0.5-1-0.7-0.7-0.2-2-0.2-1.4 0-2.4 0-1.1 0-1.9 0-0.9 0-1.6 0.1l-0.3-2.4q1-0.1 1.9-0.2 0.9 0 2 0 1.1 0 2.5 0zm-6.4 0.2h3.2v18h-3.2zm22.1 4.9q2.4 0 3.8 0.7 1.4 0.7 2 2.2 0.6 1.4 0.6 3.9 0 2.5-0.6 4-0.6 1.4-2 2.1-1.4 0.7-3.8 0.7-2.3 0-3.7-0.7-1.4-0.7-2-2.1-0.7-1.5-0.7-4 0-2.5 0.7-3.9 0.6-1.5 2-2.2 1.4-0.7 3.7-0.7zm0 2.5q-1.1 0-1.8 0.4-0.7 0.3-1 1.3-0.3 0.9-0.3 2.6 0 1.7 0.3 2.7 0.3 0.9 1 1.3 0.7 0.3 1.8 0.3 1.2 0 1.9-0.3 0.7-0.4 0.9-1.3 0.3-1 0.3-2.7 0-1.7-0.3-2.6-0.2-1-0.9-1.3-0.7-0.4-1.9-0.4zm15.2-2.5q2.4 0 3.8 0.7 1.4 0.7 2 2.2 0.6 1.4 0.6 3.9 0 2.5-0.6 4-0.6 1.4-2 2.1-1.4 0.7-3.8 0.7-2.3 0-3.7-0.7-1.4-0.7-2-2.1-0.7-1.5-0.7-4 0-2.5 0.7-3.9 0.6-1.5 2-2.2 1.4-0.7 3.7-0.7zm0 2.5q-1.1 0-1.8 0.4-0.7 0.3-1 1.3-0.3 0.9-0.3 2.6 0 1.7 0.3 2.7 0.3 0.9 1 1.3 0.7 0.3 1.8 0.3 1.2 0 1.9-0.3 0.7-0.4 0.9-1.3 0.3-1 0.3-2.7 0-1.7-0.3-2.6-0.2-1-0.9-1.3-0.7-0.4-1.9-0.4zm17.4-2.1h3.6l-3.6 4.5q-0.3 0.4-0.6 0.7-0.3 0.3-0.5 0.4v0.1q0.2 0.1 0.5 0.5 0.3 0.3 0.6 0.7l4 5.9h-3.5l-4.7-7.3zm-8.1-5.4h3.2v7.8q0 0.9-0.1 1.7-0.1 0.7-0.2 1.5 0.1 0.8 0.2 1.6 0.1 0.8 0.1 1.5v4.2h-3.2zm2.2 10.1h3v2.1h-3zm27.9-5q1.8 0 2.6 0.9 1 0.9 1 2.6v9.7h-3.2v-8.7q0-1-0.4-1.4-0.3-0.4-1.3-0.4-0.5 0-1 0.2-0.5 0.1-1.2 0.5-0.6 0.4-1.5 1l-0.2-2q1.4-1.2 2.6-1.8 1.3-0.6 2.6-0.6zm-16 0.3h2.6l0.3 2.5 0.3 0.4v10h-3.2zm7.8-0.3q1.7 0 2.6 0.9 0.9 0.9 0.9 2.6v9.7h-3v-8.7q0-1-0.5-1.4-0.4-0.5-1.2-0.5-0.5 0-1.1 0.2-0.5 0.2-1.1 0.5-0.6 0.4-1.6 1l-0.2-1.9q1.3-1.2 2.6-1.8 1.3-0.6 2.6-0.6zm21.7 0q1.6 0 2.6 0.4 1.1 0.4 1.6 1.4 0.6 0.9 0.6 2.6v8.8h-2.5l-0.5-2.8-0.2-0.4v-5.6q0-1-0.5-1.5-0.5-0.4-1.8-0.4-1 0-2.5 0-1.5 0.1-3 0.3l-0.3-2.2q0.9-0.2 2.1-0.3 1.1-0.2 2.3-0.2 1.2-0.1 2.1-0.1zm-3.4 5.2h6.8v2h-5.9q-0.8 0-1.1 0.4-0.4 0.4-0.4 1.1v0.7q0 0.8 0.5 1.2 0.4 0.4 1.3 0.4 0.7 0 1.5-0.3 0.9-0.3 1.7-0.8 0.9-0.6 1.6-1.3v1.6q-0.3 0.4-0.8 1-0.5 0.5-1.2 1-0.7 0.5-1.7 0.9-0.9 0.3-2 0.3-1.2 0-2.1-0.4-0.9-0.4-1.4-1.2-0.5-0.8-0.5-2v-1.3q0-1.6 1-2.4 1-0.9 2.7-0.9zm11.6-4.9h2.5l0.4 2.5 0.3 0.4v10h-3.2zm8.2-0.4h0.6l-0.3 3h-0.9q-1.1 0-2.1 0.3-1.1 0.4-2.6 1l-0.2-1.8q1.3-1.2 2.7-1.8 1.5-0.7 2.8-0.7zm10.8 0.4h3.6l-3.7 4.5q-0.2 0.4-0.5 0.7-0.3 0.3-0.6 0.4v0.1q0.3 0.1 0.6 0.5 0.3 0.3 0.5 0.7l4.1 5.9h-3.6l-4.7-7.3zm-8-5.4h3.1l0.1 7.8q0 0.9-0.1 1.6-0.1 0.8-0.3 1.6 0.2 0.8 0.2 1.6 0.1 0.8 0.1 1.5v4.2h-3.1zm2.1 10.1h3v2.1h-3z"/>
</svg>