<svg version="1.2" xmlns="http://www.w3.org/2000/svg" viewBox="0 0 200 30" width="200" height="30">
	<title>M&amp;Tv Bookmark</title>
	<style>
	.s0 { fill: var(--a-hover-dark) } 
	</style>
	<path id="M&amp;Tv Bookmark" class="s0" aria-label="M&amp;Tv Bookmark"  d="m16.5 22h-4.6v-1.4h0.2q0.4 0 0.7 0 0.3-0.1 0.5-0.3 0.2-0.1 0.2-0.4v-10q0-0.3-0.2-0.4-0.2-0.2-0.5-0.3-0.3 0-0.7 0h-0.2v-1.4h6l3.4 11.1-0.6-0.7 3.3-10.4h5.9v1.4h-0.2q-0.4 0-0.7 0-0.3 0.1-0.5 0.3-0.2 0.1-0.2 0.4v10q0 0.3 0.2 0.4 0.2 0.2 0.5 0.3 0.3 0 0.7 0h0.2v1.4h-6.1v-1.4h0.1q0.3 0 0.6 0 0.3 0 0.5-0.1 0.2 0 0.2-0.1v-12.1l0.3-0.1-4.5 13.9h-1.7l-4.5-13.9h0.3v12.2q0 0.1 0.2 0.1 0.2 0.1 0.5 0.1 0.3 0 0.5 0h0.2zm27.7-6q-0.1 0.6-0.5 1.4-0.3 0.8-0.9 1.7-0.5 0.8-1.4 1.5-0.8 0.7-1.9 1.2-1.1 0.4-2.5 0.4-1.7 0-2.9-0.5-1.2-0.4-1.9-1.4-0.6-0.9-0.6-2.4 0-1 0.3-1.7 0.3-0.7 1-1.2 0.6-0.5 1.4-0.9 0.8-0.3 1.8-0.5l0.5 0.7q-0.7 0.3-1.1 0.7-0.5 0.4-0.7 1.1-0.3 0.6-0.3 1.6 0 1 0.4 1.7 0.3 0.6 1 1 0.7 0.3 1.7 0.3 0.9 0 1.7-0.3 0.8-0.3 1.4-0.9 0.7-0.6 1.2-1.2 0.4-0.7 0.7-1.5 0.2-0.7 0.2-1.4 0-0.1-0.2-0.1-0.2 0-0.5-0.1-0.2 0-0.5 0h-0.1v-1.3h4.3v1.3h-0.2q-0.4 0-0.7 0.1-0.3 0-0.5 0.2-0.1 0.1-0.2 0.5zm1.6 4.6v1.4h-3.5q-1.3-1.1-2.5-2.3-1.2-1.1-2.2-2.2-0.9-1.1-1.7-2.2-0.7-1.1-1.1-2.1-0.4-1.1-0.4-2 0-1.2 0.5-2 0.6-0.7 1.5-1.1 1-0.4 2.3-0.4 1.8 0 2.7 0.7 1 0.7 1 2 0 0.8-0.4 1.4-0.4 0.6-1 1.1-0.7 0.5-1.6 0.8-0.9 0.4-2 0.7l-0.4-1.1q0.8-0.3 1.4-0.5 0.6-0.3 1-0.6 0.3-0.3 0.5-0.6 0.2-0.4 0.2-1 0-0.8-0.3-1.2-0.4-0.3-1.1-0.3-0.5 0-0.8 0.2-0.4 0.1-0.6 0.6-0.2 0.4-0.2 1.2 0 0.7 0.3 1.4 0.2 0.8 0.7 1.6 0.6 0.7 1.3 1.6 0.8 0.9 1.9 1.9 1 1.1 2.3 2.3 0.3 0.2 0.6 0.4 0.2 0.2 0.4 0.2 0.3 0.1 0.6 0.1zm5.6-0.7v-10.6h-0.8q-0.9 0-1.4 0.1-0.5 0.1-0.7 0.3-0.2 0.2-0.3 0.6l-0.2 2.4h-1.6v-4.9h13v4.9h-1.6l-0.2-2.4q0-0.4-0.3-0.6-0.2-0.2-0.7-0.3-0.5-0.1-1.3-0.1h-0.8v10.6q0 0.5 0.4 0.6 0.4 0.1 1 0.1h0.3v1.4h-6.6v-1.4h0.3q0.6 0 1-0.1 0.5-0.1 0.5-0.6zm16.1 0.5l2.7-7.4q0-0.2-0.2-0.3-0.2-0.1-0.5-0.1-0.3-0.1-0.7-0.1v-1.3h4.3v1.4h-0.1q-0.3 0-0.6 0-0.3 0.1-0.5 0.3-0.1 0.3-0.3 0.7l-3.1 8.5h-3l-3.2-8.6q-0.1-0.4-0.3-0.6-0.2-0.2-0.4-0.3-0.3 0-0.7 0h-0.1v-1.4h5.8v1.3h-0.1q-0.4 0-0.7 0.1-0.4 0-0.6 0-0.2 0-0.2 0.1l2.9 8.3zm12-12.6h7.3q1.1 0 2 0.2 0.9 0.2 1.5 0.6 0.7 0.5 1 1.1 0.3 0.7 0.3 1.5 0 1.1-0.5 1.8-0.5 0.7-1.5 1.1-1 0.4-2.3 0.4l0.6-0.5v1l-0.6-0.6q1.6 0.1 2.6 0.5 1.1 0.4 1.7 1.2 0.6 0.8 0.6 1.9 0 1-0.4 1.7-0.3 0.8-1 1.3-0.7 0.5-1.6 0.7-1 0.3-2.3 0.3h-7.4v-1.4h0.2q0.6 0 1-0.2 0.4-0.1 0.4-0.5v-10q0-0.5-0.4-0.6-0.4-0.2-1-0.2h-0.2zm3.9 7.5v-1.4h2.8q0.8 0 1.3-0.2 0.5-0.3 0.7-0.8 0.3-0.6 0.3-1.4 0-0.7-0.3-1.2-0.2-0.5-0.7-0.8-0.5-0.2-1.3-0.2h-2v11.3h2.2q0.9 0 1.4-0.3 0.6-0.3 0.9-0.9 0.3-0.6 0.3-1.4 0-0.9-0.3-1.5-0.3-0.6-0.9-0.9-0.6-0.3-1.6-0.3zm22.2 1.4q0 1.7-0.7 2.9-0.7 1.3-2 2-1.3 0.7-3 0.7-1.8 0-3.1-0.7-1.3-0.7-2-2-0.7-1.2-0.7-2.9 0-1.3 0.4-2.4 0.4-1 1.1-1.7 0.8-0.8 1.8-1.1 1.1-0.4 2.5-0.4 1.3 0 2.4 0.4 1 0.3 1.8 1.1 0.7 0.7 1.1 1.7 0.4 1.1 0.4 2.4zm-8.5 0q0 1.4 0.3 2.3 0.3 0.9 0.9 1.3 0.6 0.5 1.6 0.5 0.9 0 1.5-0.5 0.6-0.4 0.9-1.3 0.3-0.9 0.3-2.3 0-1.4-0.3-2.3-0.3-0.9-0.9-1.4-0.6-0.4-1.5-0.4-1 0-1.6 0.4-0.6 0.5-0.9 1.4-0.3 0.9-0.3 2.3zm21.7 0q0 1.7-0.7 2.9-0.7 1.3-2 2-1.3 0.7-3.1 0.7-1.8 0-3.1-0.7-1.3-0.7-2-2-0.6-1.2-0.6-2.9 0-1.3 0.3-2.4 0.4-1 1.2-1.7 0.7-0.8 1.8-1.1 1.1-0.4 2.4-0.4 1.4 0 2.4 0.4 1.1 0.3 1.8 1.1 0.8 0.7 1.2 1.7 0.4 1.1 0.4 2.4zm-8.5 0q0 1.4 0.3 2.3 0.3 0.9 0.9 1.3 0.6 0.5 1.5 0.5 1 0 1.6-0.5 0.6-0.4 0.8-1.3 0.3-0.9 0.3-2.3 0-1.4-0.3-2.3-0.2-0.9-0.8-1.4-0.6-0.4-1.6-0.4-0.9 0-1.5 0.4-0.6 0.5-0.9 1.4-0.3 0.9-0.3 2.3zm23 4.1v1.2h-6v-1.2h0.1q0.3 0 0.5 0 0.3 0 0.4 0 0.2-0.1 0.2-0.2l-3.2-4.1v-0.3l3.7-3.4q0-0.1-0.3-0.2-0.3-0.1-0.6-0.1-0.4 0-0.7 0h-0.2v-1.2h5.4v1.2h-0.2q-0.4 0-0.8 0-0.3 0.1-0.6 0.3-0.3 0.2-0.6 0.5l-3.5 3.3 0.5-1.5 4.1 5q0.2 0.3 0.5 0.5 0.2 0.1 0.5 0.2 0.3 0 0.6 0zm-12.9-13.9h4.3v13.8q0 0 0.2 0.1 0.2 0 0.4 0 0.3 0 0.5 0h0.1v1.2h-5.5v-1.2q0.7 0 1-0.2 0.4-0.2 0.4-0.8v-10.8q0-0.3-0.2-0.4-0.1-0.1-0.4-0.2-0.2-0.1-0.6-0.2h-0.2zm19.5 15.2h-5.5v-1.2h0.1q0.6 0 0.9-0.2 0.4-0.3 0.4-0.9v-6.4q0-0.2-0.1-0.4-0.2-0.1-0.4-0.2-0.3-0.1-0.7-0.1l-0.2-0.1v-1.3h4l0.2 2.4h0.1v7q0 0 0.2 0.1 0.2 0 0.4 0 0.3 0.1 0.5 0.1h0.1zm6.6-1.2v1.2h-5.2v-1.2q0.3 0 0.5-0.1 0.3 0 0.4 0 0.2-0.1 0.2-0.1v-6.3q0-0.5-0.1-0.8-0.1-0.4-0.4-0.5-0.2-0.2-0.7-0.2-0.5 0-1 0.2-0.4 0.3-0.9 0.8-0.5 0.5-1 1.3v-1.4q0.5-0.9 1.1-1.5 0.6-0.6 1.4-0.9 0.7-0.3 1.6-0.3 0.9 0 1.6 0.3 0.6 0.4 1 1.1 0.3 0.7 0.3 1.8v6.4q0 0 0.2 0.1 0.2 0 0.4 0 0.3 0.1 0.5 0.1zm6.9 0v1.2h-5.5v-1.2h0.1q0.2 0 0.5-0.1 0.2 0 0.4 0 0.2-0.1 0.2-0.1v-6.3q0-0.5-0.2-0.8-0.1-0.4-0.3-0.5-0.3-0.2-0.7-0.2-0.5 0-1 0.2-0.5 0.3-1 0.8-0.4 0.5-1 1.3l0.1-1.4q0.5-0.9 1.1-1.5 0.6-0.6 1.3-0.9 0.8-0.3 1.6-0.3 1 0 1.6 0.3 0.7 0.4 1 1.1 0.4 0.7 0.4 1.8v5.5q0 0.6 0.4 0.9 0.3 0.2 0.9 0.2zm8.4-5.4v1.3q-1 0.1-1.8 0.3-0.7 0.2-1.2 0.4-0.4 0.2-0.7 0.5-0.3 0.3-0.4 0.6-0.1 0.3-0.1 0.7 0 0.6 0.2 0.9 0.2 0.3 0.5 0.5 0.4 0.1 0.8 0.1 0.5 0 1-0.2 0.4-0.2 0.8-0.7 0.4-0.5 0.8-1.3l0.1 1.1q-0.4 0.9-0.9 1.4-0.5 0.6-1.2 0.9-0.6 0.3-1.5 0.3-1.1 0-1.8-0.3-0.8-0.3-1.2-1-0.4-0.6-0.4-1.6 0-0.8 0.4-1.4 0.4-0.6 1.2-1.1 0.8-0.5 2.2-0.8 1.3-0.3 3.2-0.6zm3.9 6.6h-3.9l-0.2-2.3h-0.2v-5.6q0-0.6-0.1-0.9-0.2-0.4-0.6-0.6-0.4-0.1-1.1-0.1-1 0-1.6 0.2-0.7 0.3-1 0.6-0.1-0.1-0.1-0.2 0.1-0.2 0.2-0.4 0.1-0.1 0.3-0.2 0.2-0.1 0.5-0.2v2.4h-2.4v-2.5q0.3-0.3 0.8-0.5 0.6-0.3 1.5-0.5 0.9-0.2 2.1-0.2 1 0 1.8 0.2 0.8 0.1 1.4 0.5 0.6 0.4 0.9 1.1 0.3 0.6 0.3 1.4v5.7q0 0.3 0.2 0.4 0.1 0.1 0.4 0.2 0.3 0.1 0.7 0.1l0.1 0.1zm9.4-10.9v2.8q-0.2-0.1-0.4-0.1-0.3 0-0.6 0-0.2-0.1-0.5-0.1-0.5 0-0.9 0.1-0.4 0.1-0.7 0.2-0.4 0.2-0.7 0.5-0.3 0.2-0.6 0.6v-0.8q0.5-1.1 1-1.8 0.5-0.7 1.1-1.1 0.6-0.4 1.5-0.4 0.2 0 0.5 0 0.2 0 0.3 0.1zm-2.2 10.9h-6.1v-1.2h0.1q0.6 0 0.9-0.2 0.4-0.3 0.4-0.9v-6.4q0-0.2-0.2-0.4-0.1-0.1-0.4-0.2-0.2-0.1-0.6-0.1l-0.2-0.1v-1.3h3.9l0.3 3 0.1-0.1v6.3q0 0.2 0.3 0.2 0.2 0.1 0.5 0.1 0.4 0.1 0.7 0.1h0.3zm16.3-1.2v1.2h-6v-1.2h0.1q0.3 0 0.5-0.1 0.3 0 0.4 0 0.2-0.1 0.2-0.1l-3.2-4.2v-0.3l3.7-3.4q0-0.1-0.3-0.2-0.3 0-0.6-0.1-0.4 0-0.7 0h-0.2v-1.2h5.4v1.2h-0.2q-0.4 0-0.8 0.1-0.3 0-0.6 0.2-0.3 0.2-0.6 0.5l-3.5 3.3 0.5-1.5 4.1 5q0.2 0.3 0.5 0.5 0.2 0.1 0.5 0.2 0.3 0.1 0.6 0.1zm-12.9-14h4.3v13.8q0 0 0.2 0.1 0.2 0 0.4 0 0.3 0.1 0.5 0.1h0.1v1.2h-5.5v-1.2q0.7 0 1-0.2 0.4-0.3 0.4-0.9v-10.8q0-0.2-0.2-0.4-0.1-0.1-0.4-0.2-0.2-0.1-0.6-0.1l-0.2-0.1z"/>
</svg>