<svg version="1.2" xmlns="http://www.w3.org/2000/svg" viewBox="0 0 100 30" width="100" height="30">
	<title>Movie &amp; Tv Bookmark</title>
	<style>
		.s0 { fill: var(--a-hover-dark) } 
	</style>
	<path id="M&amp;Tv" class="s0" aria-label="M&amp;Tv"  d="m29.4 14h-3.7v-1.1h0.2q0.3 0 0.5-0.1 0.3 0 0.4-0.1 0.2-0.2 0.2-0.4v-8q0-0.2-0.2-0.3-0.1-0.2-0.4-0.2-0.2-0.1-0.5-0.1h-0.2v-1.1h4.9l2.6 8.9-0.4-0.5 2.6-8.4h4.8v1.1h-0.2q-0.3 0-0.6 0.1-0.2 0-0.4 0.2-0.1 0.1-0.1 0.3v8q0 0.2 0.1 0.4 0.2 0.1 0.4 0.1 0.3 0.1 0.6 0.1h0.2v1.1h-5v-1.1h0.2q0.2 0 0.4 0 0.3 0 0.4-0.1 0.2 0 0.2 0v-9.8h0.2l-3.6 11h-1.3l-3.6-11 0.2-0.1v9.9q0 0 0.1 0 0.2 0.1 0.5 0.1 0.2 0 0.4 0h0.1zm22.2-4.8q-0.1 0.5-0.4 1.1-0.3 0.7-0.7 1.3-0.5 0.7-1.2 1.3-0.6 0.6-1.5 0.9-0.9 0.4-2 0.4-1.3 0-2.3-0.4-1-0.4-1.5-1.2-0.6-0.7-0.6-1.9 0-0.8 0.3-1.3 0.3-0.6 0.8-1 0.5-0.4 1.1-0.7 0.7-0.3 1.5-0.5l0.4 0.7q-0.5 0.2-0.9 0.5-0.4 0.3-0.6 0.8-0.2 0.5-0.2 1.3 0 0.8 0.3 1.4 0.3 0.5 0.8 0.8 0.6 0.3 1.4 0.3 0.7 0 1.3-0.3 0.7-0.3 1.2-0.7 0.5-0.5 0.9-1 0.4-0.6 0.6-1.2 0.2-0.6 0.2-1.1 0 0-0.2-0.1-0.1 0-0.4 0-0.2 0-0.4 0h-0.1v-1.1h3.4v1.1h-0.1q-0.3 0-0.6 0-0.2 0-0.3 0.2-0.2 0.1-0.2 0.4zm1.2 3.7v1.1h-2.8q-1-0.9-2-1.8-0.9-0.9-1.7-1.8-0.8-0.9-1.4-1.8-0.5-0.9-0.9-1.7-0.3-0.8-0.3-1.6 0-0.9 0.5-1.5 0.4-0.7 1.2-1 0.7-0.3 1.7-0.3 1.5 0 2.3 0.6 0.7 0.6 0.7 1.6 0 0.7-0.3 1.2-0.3 0.4-0.8 0.8-0.6 0.4-1.3 0.7-0.7 0.2-1.5 0.5l-0.4-0.8q0.6-0.3 1.1-0.5 0.5-0.2 0.8-0.4 0.3-0.3 0.4-0.6 0.2-0.3 0.2-0.8 0-0.6-0.3-0.9-0.2-0.3-0.8-0.3-0.4 0-0.7 0.2-0.3 0.1-0.5 0.5-0.1 0.3-0.1 0.9 0 0.6 0.2 1.2 0.2 0.6 0.6 1.2 0.4 0.7 1.1 1.4 0.6 0.7 1.4 1.5 0.9 0.8 1.9 1.8 0.3 0.2 0.4 0.3 0.2 0.1 0.4 0.2 0.2 0.1 0.5 0.1zm4.4-0.6v-8.5h-0.6q-0.7 0-1.1 0.1-0.4 0-0.6 0.2-0.2 0.2-0.2 0.5l-0.2 1.9h-1.3v-3.9h10.5v3.9h-1.3l-0.2-1.9q0-0.3-0.2-0.5-0.2-0.2-0.6-0.2-0.4-0.1-1.1-0.1h-0.6v8.5q0 0.4 0.3 0.5 0.4 0.1 0.8 0.1h0.3v1.1h-5.3v-1.1h0.3q0.5 0 0.8-0.1 0.3-0.1 0.3-0.5zm12.9 0.4l2.2-6q0 0-0.2-0.1-0.1-0.1-0.4-0.1-0.2-0.1-0.5-0.1h-0.1v-1h3.5v1h-0.1q-0.3 0-0.5 0.1-0.2 0.1-0.3 0.2-0.2 0.2-0.3 0.5l-2.5 6.9h-2.4l-2.5-7q-0.1-0.3-0.3-0.4-0.1-0.1-0.3-0.2-0.2-0.1-0.5-0.1h-0.1v-1h4.6v1h-0.1q-0.3 0-0.6 0-0.2 0-0.4 0.1-0.2 0-0.2 0l2.4 6.7z"/>
	<path id="Bookmark" class="s0" aria-label="Bookmark"  d="m6.7 16.6h5.8q1 0 1.7 0.2 0.7 0.2 1.2 0.5 0.5 0.4 0.7 0.9 0.3 0.6 0.3 1.2 0 0.9-0.4 1.4-0.4 0.6-1.2 0.9-0.8 0.3-1.9 0.3l0.5-0.4v0.8l-0.4-0.4q1.2 0 2.1 0.4 0.8 0.3 1.3 0.9 0.4 0.6 0.4 1.5 0 0.8-0.2 1.4-0.3 0.6-0.9 1-0.5 0.4-1.3 0.6-0.7 0.2-1.7 0.2h-6v-1.1h0.2q0.4 0 0.7-0.1 0.4-0.1 0.4-0.5v-8q0-0.3-0.4-0.4-0.3-0.2-0.7-0.2h-0.2zm3.1 6v-1.1h2.2q0.7 0 1.1-0.2 0.4-0.2 0.6-0.6 0.2-0.5 0.2-1.1 0-0.6-0.2-1-0.2-0.4-0.6-0.6-0.4-0.2-1-0.2h-1.7v9.1h1.8q0.7 0 1.2-0.3 0.4-0.2 0.7-0.7 0.2-0.5 0.2-1.2 0-0.6-0.2-1.1-0.3-0.5-0.8-0.7-0.4-0.3-1.2-0.3zm17.7 1.1q0 1.4-0.5 2.4-0.6 1-1.6 1.6-1 0.5-2.5 0.5-1.4 0-2.4-0.5-1.1-0.6-1.6-1.6-0.6-1-0.6-2.4 0-1 0.3-1.9 0.3-0.8 0.9-1.4 0.6-0.6 1.5-0.9 0.9-0.3 1.9-0.3 1.1 0 2 0.3 0.8 0.3 1.4 0.9 0.6 0.6 0.9 1.4 0.3 0.9 0.3 1.9zm-6.7 0q0 1.1 0.2 1.9 0.2 0.7 0.7 1 0.5 0.4 1.2 0.4 0.8 0 1.3-0.4 0.4-0.3 0.7-1 0.2-0.8 0.2-1.9 0-1.1-0.2-1.8-0.3-0.8-0.7-1.1-0.5-0.4-1.3-0.4-0.7 0-1.2 0.4-0.5 0.3-0.7 1.1-0.2 0.7-0.2 1.8zm17.3 0q0 1.4-0.6 2.4-0.6 1-1.6 1.6-1 0.5-2.4 0.5-1.5 0-2.5-0.5-1-0.6-1.6-1.6-0.5-1-0.5-2.4 0-1 0.3-1.9 0.3-0.8 0.9-1.4 0.6-0.6 1.4-0.9 0.9-0.3 2-0.3 1 0 1.9 0.3 0.8 0.3 1.4 0.9 0.6 0.6 0.9 1.4 0.4 0.9 0.4 1.9zm-6.8 0q0 1.1 0.2 1.9 0.2 0.7 0.7 1 0.5 0.4 1.3 0.4 0.7 0 1.2-0.4 0.5-0.3 0.7-1 0.2-0.8 0.2-1.9 0-1.1-0.2-1.8-0.2-0.8-0.7-1.1-0.5-0.4-1.2-0.4-0.8 0-1.3 0.4-0.5 0.3-0.7 1.1-0.2 0.7-0.2 1.8zm18.4 3.3v1h-4.8v-1h0.1q0.2 0 0.4 0 0.2 0 0.3 0 0.2-0.1 0.2-0.1l-2.6-3.3v-0.3l2.9-2.7q0-0.1-0.2-0.1-0.2-0.1-0.5-0.1-0.3-0.1-0.5-0.1h-0.2v-0.9h4.3v0.9h-0.2q-0.3 0-0.6 0.1-0.2 0.1-0.5 0.2-0.2 0.1-0.5 0.4l-2.8 2.6 0.5-1.2 3.2 4.1q0.2 0.2 0.4 0.3 0.2 0.1 0.5 0.2 0.2 0 0.5 0zm-10.4-11.1h3.4v11q0 0 0.2 0.1 0.1 0 0.4 0 0.2 0 0.3 0h0.1v1h-4.4v-1q0.5 0 0.8-0.1 0.3-0.2 0.3-0.7v-8.6q0-0.2-0.1-0.3-0.1-0.1-0.3-0.2-0.2-0.1-0.6-0.1l-0.1-0.1zm15.6 12.2h-4.4v-1h0.1q0.4 0 0.7-0.2 0.3-0.1 0.3-0.6v-5.2q0-0.2-0.1-0.3-0.1-0.1-0.3-0.1-0.2-0.1-0.5-0.2h-0.2v-1.1h3.2l0.2 2h0.1v5.6q0 0 0.1 0 0.2 0.1 0.4 0.1 0.1 0 0.3 0h0.1zm5.3-1v1h-4.2v-1h0.1q0.1 0 0.3 0 0.2 0 0.4 0 0.1-0.1 0.1-0.1v-5q0-0.4-0.1-0.7-0.1-0.3-0.3-0.4-0.2-0.1-0.5-0.1-0.4 0-0.8 0.2-0.4 0.2-0.8 0.6-0.4 0.4-0.8 1v-1.1q0.5-0.7 0.9-1.2 0.5-0.5 1.1-0.7 0.6-0.3 1.3-0.3 0.7 0 1.3 0.3 0.5 0.3 0.8 0.9 0.3 0.5 0.3 1.4v5.1q0 0 0.1 0.1 0.1 0 0.3 0 0.2 0 0.4 0zm5.5 0v1h-4.3v-1q0.2 0 0.4 0 0.2 0 0.3 0 0.2-0.1 0.2-0.1v-5q0-0.4-0.1-0.7-0.1-0.3-0.3-0.4-0.2-0.1-0.6-0.1-0.4 0-0.8 0.2-0.4 0.2-0.7 0.6-0.4 0.4-0.8 1v-1.1q0.4-0.7 0.9-1.2 0.5-0.5 1.1-0.7 0.5-0.3 1.2-0.3 0.8 0 1.3 0.3 0.5 0.3 0.8 0.9 0.3 0.5 0.3 1.4v4.4q0 0.5 0.3 0.7 0.3 0.1 0.8 0.1zm6.6-4.2v1q-0.8 0.1-1.3 0.2-0.6 0.2-1 0.4-0.4 0.1-0.6 0.4-0.2 0.2-0.3 0.4-0.1 0.3-0.1 0.6 0 0.4 0.2 0.7 0.1 0.3 0.4 0.4 0.3 0.1 0.6 0.1 0.4 0 0.8-0.2 0.3-0.2 0.6-0.5 0.4-0.4 0.7-1.1l0.1 0.9q-0.3 0.7-0.7 1.2-0.5 0.4-1 0.7-0.5 0.2-1.2 0.2-0.9 0-1.5-0.3-0.6-0.2-0.9-0.7-0.3-0.5-0.3-1.3 0-0.7 0.3-1.2 0.3-0.5 0.9-0.8 0.7-0.4 1.8-0.7 1-0.2 2.5-0.4zm3.2 5.2h-3.1l-0.2-1.8h-0.1v-4.5q0-0.5-0.2-0.7-0.1-0.3-0.4-0.5-0.3-0.1-0.9-0.1-0.8 0-1.3 0.2-0.5 0.2-0.8 0.5 0-0.1 0-0.2 0-0.2 0.1-0.3 0.1-0.1 0.3-0.2 0.1-0.1 0.4-0.1v1.9h-2v-2q0.2-0.2 0.7-0.4 0.5-0.2 1.2-0.4 0.7-0.2 1.6-0.2 0.8 0 1.5 0.2 0.6 0.1 1.1 0.4 0.5 0.3 0.7 0.8 0.3 0.5 0.3 1.2v4.6q0 0.2 0.1 0.3 0.1 0.1 0.3 0.1 0.3 0.1 0.6 0.1l0.1 0.1zm7.5-8.7v2.2q-0.1-0.1-0.3-0.1-0.2 0-0.5 0-0.2 0-0.4 0-0.4 0-0.7 0-0.3 0.1-0.6 0.2-0.3 0.2-0.5 0.4-0.2 0.2-0.5 0.5v-0.7q0.4-0.8 0.8-1.4 0.4-0.6 0.8-0.9 0.6-0.3 1.2-0.3 0.3 0 0.4 0 0.2 0 0.3 0.1zm-1.8 8.7h-4.8v-1q0.5 0 0.8-0.2 0.3-0.1 0.3-0.6v-5.2q0-0.2-0.1-0.3-0.1-0.1-0.4-0.1-0.2-0.1-0.5-0.2h-0.1v-1.1h3.1l0.2 2.4h0.1v5q0 0.1 0.2 0.2 0.2 0.1 0.5 0.1 0.2 0 0.5 0h0.2zm13.1-1v1h-4.8v-1h0.1q0.2 0 0.4 0 0.2 0 0.3 0 0.2-0.1 0.2-0.1l-2.6-3.3v-0.3l2.9-2.7q0-0.1-0.2-0.2-0.2 0-0.5 0-0.3-0.1-0.5-0.1h-0.2v-0.9h4.3v0.9h-0.2q-0.3 0-0.6 0.1-0.2 0.1-0.5 0.2-0.2 0.1-0.5 0.4l-2.8 2.6 0.5-1.2 3.2 4.1q0.2 0.2 0.4 0.3 0.2 0.1 0.5 0.2 0.2 0 0.5 0zm-10.4-11.1h3.4v11q0 0 0.2 0.1 0.1 0 0.4 0 0.2 0 0.3 0h0.1v1h-4.4v-1q0.5 0 0.8-0.1 0.3-0.2 0.3-0.7v-8.6q0-0.2-0.1-0.3-0.1-0.1-0.3-0.2-0.2-0.1-0.6-0.1l-0.1-0.1z"/>
</svg>